Coordinates
version=1
nRows=30
nColumns=38
inDegrees=no

Units are S.I. units (second, meters, Newtons, ...)
If the header above contains a line with 'inDegrees', this indicates whether rotational values are in degrees (yes) or radians (no).

endheader
time	pelvis_tilt	pelvis_list	pelvis_rotation	pelvis_tx	pelvis_ty	pelvis_tz	hip_flexion_r	hip_adduction_r	hip_rotation_r	knee_angle_r	ankle_angle_r	subtalar_angle_r	mtp_angle_r	hip_flexion_l	hip_adduction_l	hip_rotation_l	knee_angle_l	ankle_angle_l	subtalar_angle_l	mtp_angle_l	lumbar_extension	lumbar_bending	lumbar_rotation	arm_flex_r	arm_add_r	arm_rot_r	elbow_flex_r	pro_sup_r	wrist_flex_r	wrist_dev_r	arm_flex_l	arm_add_l	arm_rot_l	elbow_flex_l	pro_sup_l	wrist_flex_l	wrist_dev_l
0.5	-2.89934	1.51515	-1.94434	0.81771	0.040707	1.00351	0.598726	-0.1505	-0.104806	1.12956	-0.0922152	0	0	-0.0138257	0.057195	-0.185704	0.349947	0.201542	0	0	-0.311468	-0.0541623	0.0951488	-0.00638417	-0.223197	0.0883475	0.365548	1.40214	0	0	0.0185067	-0.273169	0.468538	0.426004	1.11343	0	0
0.51	-2.98212	1.51683	-1.86187	0.818568	0.0494593	1.00339	0.596188	-0.14371	-0.120137	1.07972	-0.0803508	0	0	-0.0268722	0.053389	-0.181336	0.344033	0.205101	0	0	-0.31366	-0.0491809	0.0957548	-0.00121007	-0.224672	0.0949348	0.364081	1.39913	0	0	0.0216721	-0.270816	0.464375	0.422607	1.11609	0	0
0.52	-3.03412	1.51679	-1.80435	0.81983	0.0582367	1.00333	0.589122	-0.131377	-0.137436	1.02754	-0.0729139	0	0	-0.0418476	0.0459457	-0.182965	0.336335	0.211839	0	0	-0.317247	-0.0463939	0.0930293	0.00289435	-0.224774	0.103543	0.362249	1.3938	0	0	0.0267562	-0.269499	0.458215	0.418453	1.12135	0	0
0.53	-3.02156	1.50515	-1.81516	0.820605	0.0669987	1.00483	0.568661	-0.135056	-0.155467	0.96851	-0.0611665	0	0	-0.0689769	0.0495991	-0.186472	0.32479	0.207279	0	0	-0.334796	-0.0499968	0.0888098	0.0124667	-0.224951	0.117723	0.358454	1.38014	0	0	0.034207	-0.265889	0.441683	0.41046	1.14053	0	0
0.54	3.07793	1.51692	-1.62955	0.821359	0.0761797	1.00277	0.571993	-0.121579	-0.177723	0.913925	-0.0489595	0	0	-0.0692066	0.0369589	-0.179121	0.324699	0.217552	0	0	-0.324107	-0.0352214	0.090764	0.0119662	-0.228503	0.120957	0.360464	1.37817	0	0	0.0336229	-0.262594	0.439416	0.409075	1.14343	0	0
0.55	2.94222	1.51433	-1.49062	0.822252	0.085335	1.0026	0.557031	-0.113675	-0.203191	0.851641	-0.0393883	0	0	-0.0850324	0.0286495	-0.176188	0.319397	0.223389	0	0	-0.32973	-0.0262212	0.0897311	0.0151466	-0.230611	0.127083	0.361969	1.37265	0	0	0.0370487	-0.259552	0.433027	0.405429	1.14919	0	0
0.56	2.84861	1.51308	-1.39424	0.823239	0.0945533	1.00207	0.543987	-0.106766	-0.22758	0.790313	-0.0298555	0	0	-0.0988201	0.0223272	-0.175496	0.314057	0.23096	0	0	-0.332999	-0.0197312	0.0886579	0.0175395	-0.231835	0.130212	0.36378	1.36846	0	0	0.0392179	-0.257606	0.427006	0.404059	1.15354	0	0
0.57	2.7522	1.50784	-1.29463	0.824406	0.104019	1.00178	0.524593	-0.097672	-0.255033	0.726082	-0.0211496	0	0	-0.116752	0.0145146	-0.172831	0.308198	0.236682	0	0	-0.339615	-0.0118806	0.08786	0.0196812	-0.232865	0.132402	0.365895	1.36498	0	0	0.0413138	-0.255963	0.421505	0.403291	1.15767	0	0
0.58	2.6804	1.50169	-1.22042	0.825913	0.113695	1.00143	0.504641	-0.086636	-0.27861	0.663933	-0.0116507	0	0	-0.135606	0.0071549	-0.169442	0.302796	0.240753	0	0	-0.346294	-0.00510697	0.087851	0.0214189	-0.233009	0.133503	0.367309	1.36227	0	0	0.0426528	-0.255668	0.41765	0.403287	1.16187	0	0
0.59	2.62385	1.49409	-1.16061	0.827446	0.123566	1.00107	0.48276	-0.0744926	-0.301104	0.603104	-0.00430445	0	0	-0.156368	-0.00105237	-0.168352	0.296242	0.244799	0	0	-0.353742	0.00216498	0.0872326	0.0229664	-0.233016	0.133733	0.368298	1.35947	0	0	0.0433564	-0.25575	0.414147	0.404184	1.16625	0	0
0.6	2.58237	1.48512	-1.1147	0.828948	0.133638	1.00071	0.459035	-0.061357	-0.321451	0.544159	-0.000308843	0	0	-0.179377	-0.0100919	-0.169487	0.287864	0.248574	0	0	-0.361989	0.00995132	0.0858489	0.0236034	-0.23331	0.134886	0.370047	1.35736	0	0	0.0436001	-0.2563	0.411351	0.405966	1.17108	0	0
0.61	2.66266	1.46874	-1.19425	0.831214	0.144001	1.00185	0.423228	-0.0516181	-0.33098	0.488483	0.00205214	0	0	-0.217812	-0.0105422	-0.171155	0.272903	0.244034	0	0	-0.383069	0.00771406	0.0858294	0.0264799	-0.230688	0.136351	0.369801	1.35747	0	0	0.0454349	-0.259974	0.409683	0.408825	1.17579	0	0
0.62	2.53164	1.47039	-1.05895	0.832686	0.154511	0.999236	0.420078	-0.03283	-0.337535	0.448339	0.0122107	0	0	-0.222695	-0.024736	-0.169496	0.273537	0.2572	0	0	-0.372216	0.0212068	0.0859699	0.0203458	-0.233347	0.136943	0.375653	1.35786	0	0	0.0403852	-0.260205	0.409522	0.411593	1.17741	0	0
0.63	2.50683	1.4618	-1.03282	0.834801	0.165346	0.998417	0.400543	-0.0166401	-0.337321	0.408331	0.0185048	0	0	-0.244104	-0.033342	-0.169819	0.270098	0.262452	0	0	-0.376677	0.0276543	0.0875562	0.0163824	-0.234134	0.137824	0.38114	1.35679	0	0	0.0373415	-0.262448	0.41029	0.414921	1.17785	0	0
0.64	2.49588	1.45348	-1.01995	0.836896	0.176447	0.99754	0.382408	-0.00309603	-0.33633	0.376963	0.02334	0	0	-0.266006	-0.0404948	-0.168852	0.266244	0.265491	0	0	-0.380611	0.0331931	0.0880673	0.0115046	-0.234703	0.138846	0.386652	1.35486	0	0	0.0335744	-0.265166	0.413101	0.418178	1.17606	0	0
0.65	2.48947	1.44592	-1.0106	0.838955	0.187769	0.996565	0.366694	0.00804719	-0.335605	0.355315	0.029885	0	0	-0.286621	-0.0469916	-0.166392	0.26351	0.266734	0	0	-0.383287	0.038479	0.0872077	0.00601343	-0.234517	0.137989	0.391407	1.3548	0	0	0.0292186	-0.267785	0.416038	0.420834	1.17327	0	0
0.66	2.48292	1.44002	-1.0001	0.84101	0.199334	0.995439	0.354992	0.0163128	-0.336674	0.344769	0.038775	0	0	-0.304061	-0.0532149	-0.162672	0.263804	0.268322	0	0	-0.383486	0.0433647	0.0848678	0.000205483	-0.233451	0.136273	0.394644	1.3556	0	0	0.0240281	-0.26981	0.416593	0.422111	1.17233	0	0
0.67	2.48066	1.43341	-0.992713	0.842977	0.211084	0.994451	0.34346	0.0228261	-0.340204	0.34222	0.0454252	0	0	-0.320372	-0.0605561	-0.160341	0.267958	0.269528	0	0	-0.384415	0.0487462	0.0814427	-0.00604319	-0.232386	0.13505	0.398527	1.35764	0	0	0.0186945	-0.271408	0.416864	0.423132	1.17207	0	0
0.68	2.47984	1.42708	-0.985479	0.844887	0.223003	0.993476	0.333037	0.0273027	-0.346221	0.347352	0.0465576	0	0	-0.334072	-0.0688499	-0.159066	0.276424	0.270504	0	0	-0.384853	0.0542963	0.0767729	-0.0128501	-0.23134	0.134218	0.403087	1.36035	0	0	0.0127493	-0.272961	0.416579	0.424622	1.17154	0	0
0.69	2.48241	1.42214	-0.980559	0.846745	0.235123	0.992402	0.324008	0.0294559	-0.351682	0.358885	0.0399937	0	0	-0.344086	-0.0768768	-0.156966	0.289653	0.271101	0	0	-0.383752	0.0590752	0.0708166	-0.0205667	-0.230206	0.133124	0.408186	1.36295	0	0	0.00585726	-0.274793	0.415497	0.426434	1.17147	0	0
0.7	2.48727	1.41867	-0.976777	0.848561	0.247464	0.991233	0.316192	0.0297679	-0.35732	0.373818	0.0283828	0	0	-0.349778	-0.0847623	-0.153245	0.308668	0.271378	0	0	-0.380907	0.0631171	0.0634556	-0.0293243	-0.228776	0.1307	0.41374	1.36513	0	0	-0.00196983	-0.276791	0.413342	0.428515	1.17175	0	0
0.71	2.48647	1.41601	-0.967127	0.850426	0.259787	0.990074	0.311078	0.0297213	-0.36345	0.390979	0.0147099	0	0	-0.350206	-0.0940452	-0.149975	0.334813	0.270505	0	0	-0.376924	0.0674687	0.0560577	-0.0382278	-0.227318	0.127069	0.419374	1.36702	0	0	-0.00975309	-0.278444	0.410095	0.430274	1.17251	0	0
0.72	2.47231	1.4136	-0.945373	0.85249	0.271804	0.98913	0.310635	0.0303435	-0.369409	0.412427	0.00182342	0	0	-0.344908	-0.105635	-0.147698	0.367927	0.267244	0	0	-0.37243	0.0728407	0.050433	-0.0459095	-0.225965	0.123248	0.424257	1.36838	0	0	-0.0163641	-0.279535	0.405958	0.431143	1.17381	0	0
0.73	2.44726	1.41075	-0.915038	0.854767	0.283452	0.98867	0.313288	0.0320704	-0.372612	0.437809	-0.00636589	0	0	-0.334405	-0.118999	-0.146409	0.40843	0.259454	0	0	-0.368568	0.0791203	0.0476454	-0.0515152	-0.224722	0.119632	0.427766	1.36935	0	0	-0.0215199	-0.280091	0.401454	0.431704	1.17578	0	0
0.74	2.42288	1.40721	-0.887542	0.857203	0.294882	0.988772	0.315168	0.0346226	-0.372204	0.463168	-0.00983199	0	0	-0.320402	-0.132295	-0.144858	0.454855	0.244855	0	0	-0.366299	0.08502	0.0469873	-0.0549532	-0.223366	0.11713	0.429581	1.37016	0	0	-0.0255113	-0.280251	0.396634	0.432026	1.17786	0	0
0.75	2.40083	1.4042	-0.863793	0.859751	0.306222	0.98916	0.315639	0.0372956	-0.371012	0.485556	-0.0117346	0	0	-0.301456	-0.144607	-0.142149	0.50813	0.22338	0	0	-0.36398	0.0897618	0.0470246	-0.0568113	-0.221737	0.11586	0.429682	1.37168	0	0	-0.0293053	-0.280401	0.390591	0.432479	1.18228	0	0
0.76	2.38254	1.4021	-0.844477	0.862326	0.317451	0.989635	0.313683	0.039881	-0.371092	0.50285	-0.012608	0	0	-0.277802	-0.155982	-0.138537	0.566838	0.195211	0	0	-0.361108	0.0931043	0.0470466	-0.0576772	-0.220123	0.11633	0.428258	1.3722	0	0	-0.0325334	-0.281323	0.387676	0.432642	1.18657	0	0
0.77	2.36119	1.40108	-0.821476	0.864836	0.328496	0.989998	0.309986	0.0426719	-0.373953	0.515458	-0.00723973	0	0	-0.24865	-0.167623	-0.133052	0.629791	0.159717	0	0	-0.356773	0.096332	0.0465235	-0.0590134	-0.219041	0.118165	0.427733	1.37116	0	0	-0.0348228	-0.283078	0.389215	0.432226	1.18703	0	0
0.78	2.33035	1.40038	-0.788111	0.867283	0.339313	0.990205	0.305198	0.0468391	-0.380004	0.524367	0.00500289	0	0	-0.214238	-0.180174	-0.12368	0.695895	0.117077	0	0	-0.350848	0.100895	0.0458756	-0.0611089	-0.218817	0.120437	0.428519	1.3703	0	0	-0.0361588	-0.285087	0.39294	0.431158	1.18624	0	0
0.79	2.28544	1.40023	-0.738943	0.869534	0.34979	0.990161	0.301391	0.0519892	-0.389423	0.530872	0.0192323	0	0	-0.173758	-0.192431	-0.107762	0.764134	0.0732954	0	0	-0.342601	0.107429	0.0442669	-0.0643256	-0.219501	0.121738	0.431797	1.36909	0	0	-0.0374425	-0.287692	0.398679	0.431723	1.18381	0	0
